<svg xmlns="http://www.w3.org/2000/svg" viewBox="0 0 512 512" role="img" aria-label="Data Leadership Network icon">
  <rect width="512" height="512" rx="108" fill="#23231f"/>
  <path d="M124 156c46 0 82 10 112 31v214c-30-22-67-32-112-32-20 0-38 2-54 7V171c16-10 34-15 54-15z" fill="#fffdf8"/>
  <path d="M388 156c-46 0-82 10-112 31v214c30-22 67-32 112-32 20 0 38 2 54 7V171c-16-10-34-15-54-15z" fill="#f1ead9"/>
  <path d="M256 187v214" stroke="#d6d0bf" stroke-width="14" stroke-linecap="round"/>
  <path d="M102 218c37-7 77-3 112 13M102 270c37-7 77-3 112 13M298 231c35-16 75-20 112-13M298 283c35-16 75-20 112-13" stroke="#d6d0bf" stroke-width="12" stroke-linecap="round"/>
  <path d="M178 180l76-62 82 44M254 118l11 119M336 162l-71 75M178 180l87 57M198 331l67-94 78 93M198 331l145-1" fill="none" stroke="#fffdf8" stroke-opacity=".38" stroke-width="13" stroke-linecap="round"/>
  <circle cx="254" cy="118" r="34" fill="#147a62"/>
  <circle cx="178" cy="180" r="28" fill="#b98524"/>
  <circle cx="336" cy="162" r="28" fill="#7457a8"/>
  <circle cx="265" cy="237" r="42" fill="#147a62"/>
  <circle cx="198" cy="331" r="28" fill="#255f99"/>
  <circle cx="343" cy="330" r="28" fill="#b6533c"/>
  <text x="265" y="252" text-anchor="middle" font-family="Arial, sans-serif" font-size="47" font-weight="700" fill="#fffdf8">数</text>
</svg>
